<svg width="63" height="38" viewBox="0 0 63 38" fill="none" xmlns="http://www.w3.org/2000/svg">
<path d="M0 19C0 8.50659 8.50659 0 19 0H43.9375C54.431 0 62.9375 8.50659 62.9375 19V38H19C8.50659 38 0 29.4935 0 19Z" fill="#252160"/>
<path d="M43.9375 7.125H19C12.4416 7.125 7.125 12.4416 7.125 19C7.125 25.5584 12.4416 30.875 19 30.875H43.9375C50.4959 30.875 55.8125 25.5584 55.8125 19C55.8125 12.4416 50.4959 7.125 43.9375 7.125Z" fill="#F8F8F8"/>
<path d="M19 24.9375C22.2792 24.9375 24.9375 22.2792 24.9375 19C24.9375 15.7208 22.2792 13.0625 19 13.0625C15.7208 13.0625 13.0625 15.7208 13.0625 19C13.0625 22.2792 15.7208 24.9375 19 24.9375Z" fill="black"/>
<path d="M16.625 17.8125C17.2808 17.8125 17.8125 17.2808 17.8125 16.625C17.8125 15.9692 17.2808 15.4375 16.625 15.4375C15.9692 15.4375 15.4375 15.9692 15.4375 16.625C15.4375 17.2808 15.9692 17.8125 16.625 17.8125Z" fill="white"/>
<path d="M45.125 24.9375C48.4042 24.9375 51.0625 22.2792 51.0625 19C51.0625 15.7208 48.4042 13.0625 45.125 13.0625C41.8458 13.0625 39.1875 15.7208 39.1875 19C39.1875 22.2792 41.8458 24.9375 45.125 24.9375Z" fill="black"/>
<path d="M42.75 17.8125C43.4058 17.8125 43.9375 17.2808 43.9375 16.625C43.9375 15.9692 43.4058 15.4375 42.75 15.4375C42.0942 15.4375 41.5625 15.9692 41.5625 16.625C41.5625 17.2808 42.0942 17.8125 42.75 17.8125Z" fill="white"/>
</svg>
